<svg width="23" height="18" viewBox="0 0 23 18" fill="none" xmlns="http://www.w3.org/2000/svg">
<path d="M20.4097 4.48105C20.423 4.67634 20.423 4.87163 20.423 5.06872C20.423 11.074 15.922 18 7.69171 18V17.9964C5.26046 18 2.87972 17.2926 0.833008 15.9589C1.18653 16.0021 1.54183 16.0237 1.89801 16.0246C3.91282 16.0264 5.87005 15.3398 7.45514 14.0753C5.54045 14.0384 3.86143 12.7704 3.27489 10.9192C3.94561 11.0506 4.6367 11.0236 5.29502 10.841C3.20755 10.4126 1.70574 8.5497 1.70574 6.38623C1.70574 6.36643 1.70574 6.34754 1.70574 6.32864C2.32773 6.68051 3.02414 6.8758 3.7365 6.8974C1.77042 5.56279 1.16438 2.90615 2.35165 0.829084C4.62341 3.6684 7.97524 5.3945 11.5734 5.57718C11.2128 3.99868 11.7054 2.34459 12.8679 1.23496C14.67 -0.485733 17.5044 -0.397539 19.1985 1.43205C20.2006 1.23136 21.161 0.857882 22.04 0.328715C21.7059 1.38075 21.0069 2.27439 20.073 2.84226C20.9599 2.73606 21.8264 2.49488 22.6425 2.1268C22.0417 3.04114 21.2851 3.83759 20.4097 4.48105Z" fill="white"/>
</svg>
