<svg width="47" height="401" viewBox="0 0 47 401" fill="none" xmlns="http://www.w3.org/2000/svg">
<path d="M46.64 390.224C46.64 393.637 45.68 396.219 43.76 397.968C41.7973 399.717 39.0027 400.592 35.376 400.592H32.816V393.936H35.888C38.7893 393.936 40.24 392.72 40.24 390.288C40.24 389.093 39.8987 388.197 39.216 387.6C38.4907 386.96 37.3387 386.64 35.76 386.64C33.8827 386.64 32.24 387.067 30.832 387.92C29.3813 388.773 27.6533 390.352 25.648 392.656C23.088 395.557 20.784 397.584 18.736 398.736C16.6453 399.888 14.2987 400.464 11.696 400.464C8.15467 400.464 5.424 399.568 3.504 397.776C1.54133 395.984 0.559998 393.381 0.559998 389.968C0.559998 386.597 1.54133 384.059 3.504 382.352C5.424 380.603 8.19733 379.728 11.824 379.728H13.68V386.384H11.376C9.84 386.384 8.73066 386.683 8.048 387.28C7.32266 387.877 6.96 388.752 6.96 389.904C6.96 392.251 8.38933 393.424 11.248 393.424C12.8693 393.424 14.384 392.997 15.792 392.144C17.2 391.248 18.9067 389.648 20.912 387.344C23.472 384.4 25.7973 382.373 27.888 381.264C29.9787 380.155 32.432 379.6 35.248 379.6C38.9173 379.6 41.7333 380.517 43.696 382.352C45.6587 384.144 46.64 386.768 46.64 390.224ZM46.64 365.387C46.64 368.843 45.6587 371.489 43.696 373.323C41.7333 375.158 38.96 376.076 35.376 376.076H11.824C8.24 376.076 5.46666 375.158 3.504 373.323C1.54133 371.489 0.559998 368.843 0.559998 365.387C0.559998 361.931 1.54133 359.286 3.504 357.451C5.46666 355.617 8.24 354.699 11.824 354.699H35.376C38.96 354.699 41.7333 355.617 43.696 357.451C45.6587 359.286 46.64 361.931 46.64 365.387ZM40.24 365.387C40.24 362.955 38.768 361.74 35.824 361.74H11.376C8.432 361.74 6.96 362.955 6.96 365.387C6.96 367.819 8.432 369.035 11.376 369.035H35.824C38.768 369.035 40.24 367.819 40.24 365.387ZM1.2 349.938V331.314H7.6V342.898H20.08V333.81H26.48V342.898H46L46 349.938H1.2ZM7.6 321.809V329.169H1.2V307.409H7.6V314.769H46V321.809H7.6ZM1.2 305.415L1.2 298.631L35.632 295.495V295.367L1.2 292.039V284.359L35.632 281.031V280.903L1.2 277.767V271.687L46 276.231V284.999L15.792 288.199V288.327L46 291.527V300.871L1.2 305.415ZM1.2 263.561V254.025L46 246.729V253.769L37.104 255.049H37.232V263.049L46 264.329V270.857L1.2 263.561ZM31.152 255.881L9.008 259.017V259.145L31.152 262.217V255.881ZM1.2 243.313L1.2 232.881C1.2 229.255 2.05333 226.609 3.76 224.945C5.424 223.281 8.00533 222.449 11.504 222.449H14.256C18.9067 222.449 21.8507 223.985 23.088 227.057H23.216C23.728 225.351 24.7733 224.156 26.352 223.473C27.9307 222.748 30.0427 222.385 32.688 222.385H40.56C41.84 222.385 42.8853 222.343 43.696 222.257C44.464 222.172 45.232 221.959 46 221.617L46 228.785C45.2747 229.041 44.592 229.212 43.952 229.297C43.312 229.383 42.16 229.425 40.496 229.425H32.304C30.256 229.425 28.8267 229.767 28.016 230.449C27.2053 231.089 26.8 232.22 26.8 233.841V236.273H46V243.313H1.2ZM20.4 233.713C20.4 232.305 20.0373 231.26 19.312 230.577C18.5867 229.852 17.3707 229.49 15.664 229.49H12.208C10.5867 229.49 9.41333 229.788 8.688 230.385C7.96267 230.94 7.6 231.836 7.6 233.073V236.273H20.4V233.713ZM1.2 217.501L1.2 198.301H7.6L7.6 210.461H19.44V200.797H25.84V210.461H39.6V198.301H46V217.501H1.2ZM1.2 184.001V164.801H7.6V176.961H19.44V167.297H25.84V176.961H39.6V164.801H46V184.001H1.2ZM1.2 160.751L1.2 151.919L28.016 145.071V144.943H1.2V138.671H46V145.903L13.296 154.351V154.479H46V160.751H1.2ZM46.64 123.454C46.64 126.868 45.68 129.47 43.76 131.262C41.7973 133.054 39.0027 133.951 35.376 133.951H11.824C8.19733 133.951 5.424 133.054 3.504 131.262C1.54133 129.47 0.559998 126.868 0.559998 123.454C0.559998 120.041 1.54133 117.438 3.504 115.646C5.424 113.854 8.19733 112.958 11.824 112.958H15.664V119.615H11.376C8.432 119.615 6.96 120.83 6.96 123.262C6.96 125.694 8.432 126.91 11.376 126.91H35.888C38.7893 126.91 40.24 125.694 40.24 123.262C40.24 120.83 38.7893 119.615 35.888 119.615H27.12V123.134H20.72V112.958H35.376C39.0027 112.958 41.7973 113.854 43.76 115.646C45.68 117.438 46.64 120.041 46.64 123.454ZM1.2 108.438V101.398H46V108.438H1.2ZM1.2 96.126V87.294L28.016 80.446V80.318H1.2V74.046H46V81.278L13.296 89.726V89.854H46V96.126H1.2ZM1.2 68.8135L1.2 49.6135H7.6V61.7735H19.44V52.1095H25.84V61.7735H39.6V49.6135H46V68.8135H1.2ZM1.2 45.5635L1.2 26.3635H7.6V38.5235H19.44V28.8595H25.84V38.5235H39.6V26.3635H46V45.5635H1.2ZM1.2 22.3135V11.8815C1.2 8.25483 2.05333 5.6095 3.76 3.9455C5.424 2.2815 8.00533 1.4495 11.504 1.4495H14.256C18.9067 1.4495 21.8507 2.9855 23.088 6.0575H23.216C23.728 4.35083 24.7733 3.15617 26.352 2.4735C27.9307 1.74817 30.0427 1.3855 32.688 1.3855H40.56C41.84 1.3855 42.8853 1.34283 43.696 1.2575C44.464 1.17217 45.232 0.958832 46 0.617498V7.7855C45.2747 8.0415 44.592 8.21217 43.952 8.2975C43.312 8.38283 42.16 8.4255 40.496 8.4255H32.304C30.256 8.4255 28.8267 8.76683 28.016 9.4495C27.2053 10.0895 26.8 11.2202 26.8 12.8415V15.2735H46V22.3135H1.2ZM20.4 12.7135C20.4 11.3055 20.0373 10.2602 19.312 9.5775C18.5867 8.85217 17.3707 8.4895 15.664 8.4895H12.208C10.5867 8.4895 9.41333 8.78817 8.688 9.3855C7.96267 9.94017 7.6 10.8362 7.6 12.0735V15.2735H20.4V12.7135Z" fill="white"/>
</svg>
